<?xml version="1.0" encoding="UTF-8" standalone="no"?><!DOCTYPE svg PUBLIC "-//W3C//DTD SVG 1.1//EN" "http://www.w3.org/Graphics/SVG/1.1/DTD/svg11.dtd"><svg width="100%" height="100%" viewBox="0 0 4402 4401" version="1.1" xmlns="http://www.w3.org/2000/svg" xmlns:xlink="http://www.w3.org/1999/xlink" xml:space="preserve" style="fill-rule:evenodd;clip-rule:evenodd;stroke-linejoin:round;stroke-miterlimit:1.41421;"><rect id="colored-piton-square" x="0.383" y="0.016" width="4400.64" height="4400.64" style="fill:none;"/><path d="M2944.34,2943.79l0.058,743.451l-446.071,446.071l0,-1189.52l-297.381,0c-167.28,-0.002 -321.725,-55.366 -446.002,-148.759l323.62,-323.62c37.334,16.898 78.768,26.308 122.382,26.308c164.129,0 297.381,-133.252 297.381,-297.381c0,-43.614 -9.409,-85.049 -26.308,-122.382l26.308,-26.308l446.071,-446.071l0,594.761c0,4.321 -0.037,8.634 -0.114,12.938l0.022,284.443l594.853,0l-446.071,446.071l-148.748,0Z" style="fill:#262626;"/><path d="M2200.95,713.434l446.071,-446.071l0,1338.33l-0.086,-0.029l-323.602,323.603c-37.334,-16.899 -78.768,-26.308 -122.383,-26.308c-164.128,0 -297.38,133.251 -297.38,297.38c0,43.615 9.409,85.049 26.308,122.382l-323.621,323.621c-93.393,-124.279 -148.758,-278.726 -148.758,-446.003c0,-410.322 333.129,-743.451 743.451,-743.451l0,-743.452Z" style="fill:#feff09;"/></svg>